<svg xmlns:xlink="http://www.w3.org/1999/xlink" xmlns="http://www.w3.org/2000/svg" width="1176.612995pt" viewBox="0 0 1176.612995 151.41575" version="1.1" height="151.41575pt">
 <metadata>
  
   
    
    2022-09-30T16:12:16.721697
    image/svg+xml
    
     
      Matplotlib v3.4.3, https://matplotlib.org/
     
    
   
  
 </metadata>
 <defs>
  <style type="text/css">*{stroke-linecap:butt;stroke-linejoin:round;}</style>
 </defs>
 <g id="figure_1">
  <g id="patch_1">
   <path style="fill:none;" d="M 0 151.41575 
L 1176.612995 151.41575 
L 1176.612995 0 
L 0 0 
z"></path>
  </g>
  <g id="axes_1">
   <g id="patch_2">
    <path style="fill:#faf4e6;stroke:#000000;stroke-linejoin:miter;" d="M 59.311448 104.35175 
L 59.311448 64.48775 
L 49.643131 64.48775 
L 35.83125 86.23175 
L 49.643131 104.35175 
z" clip-path="url(#p51c501ad7d)"></path>
   </g>
   <g id="patch_3">
    <path style="fill:#faf4e6;stroke:#000000;stroke-linejoin:miter;" d="M 130.194022 104.35175 
L 130.194022 64.48775 
L 73.289072 64.48775 
L 59.477191 86.23175 
L 73.289072 104.35175 
z" clip-path="url(#p51c501ad7d)"></path>
   </g>
   <g id="patch_4">
    <path style="fill:#faf4e6;stroke:#000000;stroke-linejoin:miter;" d="M 193.783923 104.35175 
L 193.783923 64.48775 
L 149.641151 64.48775 
L 135.82927 86.23175 
L 149.641151 104.35175 
z" clip-path="url(#p51c501ad7d)"></path>
   </g>
   <g id="patch_5">
    <path style="fill:#faf4e6;stroke:#000000;stroke-linejoin:miter;" d="M 226.43521 104.35175 
L 226.43521 64.48775 
L 208.976993 64.48775 
L 195.165111 86.23175 
L 208.976993 104.35175 
z" clip-path="url(#p51c501ad7d)"></path>
   </g>
   <g id="patch_6">
    <path style="fill:#faf4e6;stroke:#000000;stroke-linejoin:miter;" d="M 233.341151 104.35175 
L 233.341151 64.48775 
L 285.273824 64.48775 
L 299.085705 86.23175 
L 285.273824 104.35175 
z" clip-path="url(#p51c501ad7d)"></path>
   </g>
   <g id="patch_7">
    <path style="fill:#faf4e6;stroke:#000000;stroke-linejoin:miter;" d="M 298.919963 104.35175 
L 298.919963 64.48775 
L 313.229072 64.48775 
L 327.040953 86.23175 
L 313.229072 104.35175 
z" clip-path="url(#p51c501ad7d)"></path>
   </g>
   <g id="patch_8">
    <path style="fill:#faf4e6;stroke:#000000;stroke-linejoin:miter;" d="M 413.337587 104.35175 
L 413.337587 64.48775 
L 378.642141 64.48775 
L 364.83026 86.23175 
L 378.642141 104.35175 
z" clip-path="url(#p51c501ad7d)"></path>
   </g>
   <g id="patch_9">
    <path style="fill:#faf4e6;stroke:#000000;stroke-linejoin:miter;" d="M 418.309864 104.35175 
L 418.309864 64.48775 
L 470.242537 64.48775 
L 484.054418 86.23175 
L 470.242537 104.35175 
z" clip-path="url(#p51c501ad7d)"></path>
   </g>
   <g id="patch_10">
    <path style="fill:#faf4e6;stroke:#000000;stroke-linejoin:miter;" d="M 489.800161 104.35175 
L 489.800161 64.48775 
L 493.943725 86.23175 
z" clip-path="url(#p51c501ad7d)"></path>
   </g>
   <g id="patch_11">
    <path style="fill:#2471a3;stroke:#000000;stroke-linejoin:miter;" d="M 505.490458 104.35175 
L 505.490458 64.48775 
L 598.195804 64.48775 
L 612.007686 86.23175 
L 598.195804 104.35175 
z" clip-path="url(#p51c501ad7d)"></path>
   </g>
   <g id="patch_12">
    <path style="fill:#faf4e6;stroke:#000000;stroke-linejoin:miter;" d="M 623.885903 104.35175 
L 623.885903 64.48775 
L 619.742339 86.23175 
z" clip-path="url(#p51c501ad7d)"></path>
   </g>
   <g id="patch_13">
    <path style="fill:#faf4e6;stroke:#000000;stroke-linejoin:miter;" d="M 671.122537 104.35175 
L 671.122537 64.48775 
L 640.736399 64.48775 
L 626.924517 86.23175 
L 640.736399 104.35175 
z" clip-path="url(#p51c501ad7d)"></path>
   </g>
   <g id="patch_14">
    <path style="fill:#faf4e6;stroke:#000000;stroke-linejoin:miter;" d="M 763.938379 104.35175 
L 763.938379 64.48775 
L 696.591646 64.48775 
L 682.779765 86.23175 
L 696.591646 104.35175 
z" clip-path="url(#p51c501ad7d)"></path>
   </g>
   <g id="patch_15">
    <path style="fill:#faf4e6;stroke:#000000;stroke-linejoin:miter;" d="M 805.42927 104.35175 
L 805.42927 64.48775 
L 791.948874 64.48775 
L 778.136993 86.23175 
L 791.948874 104.35175 
z" clip-path="url(#p51c501ad7d)"></path>
   </g>
   <g id="patch_16">
    <path style="fill:#faf4e6;stroke:#000000;stroke-linejoin:miter;" d="M 826.368082 104.35175 
L 826.368082 64.48775 
L 856.09125 64.48775 
L 869.903131 86.23175 
L 856.09125 104.35175 
z" clip-path="url(#p51c501ad7d)"></path>
   </g>
   <g id="patch_17">
    <path style="fill:#faf4e6;stroke:#000000;stroke-linejoin:miter;" d="M 942.829864 104.35175 
L 942.829864 64.48775 
L 886.256399 64.48775 
L 872.444517 86.23175 
L 886.256399 104.35175 
z" clip-path="url(#p51c501ad7d)"></path>
   </g>
   <g id="patch_18">
    <path style="fill:#faf4e6;stroke:#000000;stroke-linejoin:miter;" d="M 968.022735 104.35175 
L 968.022735 64.48775 
L 1009.347884 64.48775 
L 1023.159765 86.23175 
L 1009.347884 104.35175 
z" clip-path="url(#p51c501ad7d)"></path>
   </g>
   <g id="patch_19">
    <path style="fill:#faf4e6;stroke:#000000;stroke-linejoin:miter;" d="M 1066.639567 104.35175 
L 1066.639567 64.48775 
L 1041.557191 64.48775 
L 1027.745309 86.23175 
L 1041.557191 104.35175 
z" clip-path="url(#p51c501ad7d)"></path>
   </g>
   <g id="patch_20">
    <path style="fill:#faf4e6;stroke:#000000;stroke-linejoin:miter;" d="M 1080.893428 104.35175 
L 1080.893428 64.48775 
L 1084.263527 64.48775 
L 1098.075408 86.23175 
L 1084.263527 104.35175 
z" clip-path="url(#p51c501ad7d)"></path>
   </g>
   <g id="LineCollection_1">
    <path style="fill:none;stroke:#000000;" d="M 35.83125 107.97575 
L 1140.781745 107.97575" clip-path="url(#p51c501ad7d)"></path>
    <path style="fill:none;stroke:#000000;" d="M 35.83125 107.97575 
L 35.83125 115.22375" clip-path="url(#p51c501ad7d)"></path>
    <path style="fill:none;stroke:#000000;" d="M 312.068874 107.97575 
L 312.068874 115.22375" clip-path="url(#p51c501ad7d)"></path>
    <path style="fill:none;stroke:#000000;" d="M 588.306498 107.97575 
L 588.306498 115.22375" clip-path="url(#p51c501ad7d)"></path>
    <path style="fill:none;stroke:#000000;" d="M 864.544121 107.97575 
L 864.544121 115.22375" clip-path="url(#p51c501ad7d)"></path>
    <path style="fill:none;stroke:#000000;" d="M 1140.781745 107.97575 
L 1140.781745 115.22375" clip-path="url(#p51c501ad7d)"></path>
   </g>
   <g id="text_1">
    <text y="130.245406" x="35.83125" transform="rotate(-0, 35.83125, 130.245406)" style="font-family:DejaVu Sans;font-size:15px;font-stretch:normal;font-style:normal;font-weight:normal;text-anchor:middle;">125475</text>
   </g>
   <g id="text_2">
    <text y="130.245406" x="312.068874" transform="rotate(-0, 312.068874, 130.245406)" style="font-family:DejaVu Sans;font-size:15px;font-stretch:normal;font-style:normal;font-weight:normal;text-anchor:middle;">130475</text>
   </g>
   <g id="text_3">
    <text y="130.245406" x="588.306498" transform="rotate(-0, 588.306498, 130.245406)" style="font-family:DejaVu Sans;font-size:15px;font-stretch:normal;font-style:normal;font-weight:normal;text-anchor:middle;">135475</text>
   </g>
   <g id="text_4">
    <text y="130.245406" x="864.544121" transform="rotate(-0, 864.544121, 130.245406)" style="font-family:DejaVu Sans;font-size:15px;font-stretch:normal;font-style:normal;font-weight:normal;text-anchor:middle;">140475</text>
   </g>
   <g id="text_5">
    <text y="130.245406" x="1140.781745" transform="rotate(-0, 1140.781745, 130.245406)" style="font-family:DejaVu Sans;font-size:15px;font-stretch:normal;font-style:normal;font-weight:normal;text-anchor:middle;">145475</text>
   </g>
   <g id="text_6">
    <text transform="translate(562.417509 60.86375)rotate(-90)" style="font-family:DejaVu Sans;font-size:14px;font-stretch:normal;font-style:normal;font-weight:normal;">AriAB_II</text>
   </g>
  </g>
 </g>
 <defs>
  <clipPath id="p51c501ad7d">
   <rect y="35.49575" x="35.83125" width="1116" height="108.72"></rect>
  </clipPath>
 </defs>
</svg>
